# xmcd
#
# Track frame offsets: 
#        150
#        1398
#        5600
#        10667
#        13109
#        15576
#        19164
#        22016
#        25650
#        30782
#        33736
#        37599
#        43411
#
# Disc length: 818 seconds
#
# Revision: 0
# Processed by: cddbd v1.5.2PL0 Copyright (c) Steve Scherf et al.
# Submitted via: ExactAudioCopy v0.99pb3
#
DISCID=8503300d
DTITLE=Winston Echo - When Will We Commute Like The Jetsons Did?
DYEAR=2003
DGENRE=Undereducated
TTITLE0=Bienvenue
TTITLE1=Toast and A Ghost
TTITLE2=Dettox Ruined My Life
TTITLE3=Aaarrgh!
TTITLE4=River Island Fashionistas
TTITLE5=Lionel
TTITLE6='Imagine' Wasn't Actually That Good
TTITLE7=At The Funeral
TTITLE8=My Favourite Wrestler
TTITLE9=Scabby Teens Spoil Day
TTITLE10=Fridge Magnet McDonald
TTITLE11='Cheesecake'
TTITLE12=Winston's Gonna Sort It Out
EXTD=
EXTT0=
EXTT1=
EXTT2=
EXTT3=
EXTT4=
EXTT5=
EXTT6=
EXTT7=
EXTT8=
EXTT9=
EXTT10=
EXTT11=
EXTT12=
PLAYORDER=
